<svg width="222" height="126" viewBox="0 0 222 126" fill="none" xmlns="http://www.w3.org/2000/svg">
<path d="M146.25 114.22H65C60.5127 114.22 56.875 110.58 56.875 106.09V8.52753C56.875 4.03739 60.5127 0.397339 65 0.397339H154.375V106.09C154.375 110.58 150.737 114.22 146.25 114.22Z" fill="#FAF8F3"/>
<path d="M154.375 0.397339H162.5L154.375 8.52753V0.397339Z" fill="#FAF8F3"/>
<path d="M162.5 16.6577C166.987 16.6577 170.625 13.0177 170.625 8.52753C170.625 4.03735 166.987 0.397339 162.5 0.397339C158.013 0.397339 154.375 4.03735 154.375 8.52753C154.375 13.0177 158.013 16.6577 162.5 16.6577Z" fill="#E3DED6"/>
<path d="M167.375 24.4877H154.375V8.52753H170.625V21.2357C170.625 23.0318 169.17 24.4877 167.375 24.4877Z" fill="#E3DED6"/>
<path d="M99.6172 18.2838H143.704" stroke="#211F20" stroke-width="0.5" stroke-miterlimit="10" stroke-linecap="round" stroke-linejoin="round"/>
<path d="M99.6172 11.7796H134.284" stroke="#211F20" stroke-width="0.5" stroke-miterlimit="10" stroke-linecap="round" stroke-linejoin="round"/>
<path d="M99.6172 24.7879H143.704" stroke="#211F20" stroke-width="0.5" stroke-miterlimit="10" stroke-linecap="round" stroke-linejoin="round"/>
<path d="M99.6172 31.2921H143.704" stroke="#211F20" stroke-width="0.5" stroke-miterlimit="10" stroke-linecap="round" stroke-linejoin="round"/>
<path d="M143.703 15.0317V6.90146L137.203 6.90146V15.0317L143.703 15.0317Z" stroke="#211F20" stroke-width="0.5" stroke-miterlimit="10" stroke-linecap="round" stroke-linejoin="round"/>
<path d="M138.57 10.8046C139.065 11.738 139.728 12.5819 140.518 13.283C141.124 11.7386 141.729 10.1942 142.335 8.64981" stroke="#F56438" stroke-width="3" stroke-miterlimit="10"/>
<path d="M99.6172 56.4957H143.704" stroke="#211F20" stroke-width="0.75" stroke-miterlimit="10" stroke-linecap="round" stroke-linejoin="round"/>
<path d="M99.6172 49.9915H134.284" stroke="#211F20" stroke-width="0.75" stroke-miterlimit="10" stroke-linecap="round" stroke-linejoin="round"/>
<path d="M99.6172 62.9998H143.704" stroke="#211F20" stroke-width="0.75" stroke-miterlimit="10" stroke-linecap="round" stroke-linejoin="round"/>
<path d="M99.6172 69.504H143.704" stroke="#211F20" stroke-width="0.75" stroke-miterlimit="10" stroke-linecap="round" stroke-linejoin="round"/>
<path d="M143.703 53.2437V45.1135H137.203V53.2437H143.703Z" stroke="#211F20" stroke-width="0.75" stroke-miterlimit="10" stroke-linecap="round" stroke-linejoin="round"/>
<path d="M99.6172 89.0164H143.704" stroke="#211F20" stroke-width="0.75" stroke-miterlimit="10" stroke-linecap="round" stroke-linejoin="round"/>
<path d="M99.6172 82.5123H134.284" stroke="#211F20" stroke-width="0.75" stroke-miterlimit="10" stroke-linecap="round" stroke-linejoin="round"/>
<path d="M99.6172 95.5206H143.704" stroke="#211F20" stroke-width="0.75" stroke-miterlimit="10" stroke-linecap="round" stroke-linejoin="round"/>
<path d="M99.6172 102.025H143.704" stroke="#211F20" stroke-width="0.75" stroke-miterlimit="10" stroke-linecap="round" stroke-linejoin="round"/>
<path d="M143.703 85.7644V77.6342H137.203V85.7644H143.703Z" stroke="#211F20" stroke-width="0.75" stroke-miterlimit="10" stroke-linecap="round" stroke-linejoin="round"/>
<path d="M74.7145 55.484C75.1114 57.6447 74.5059 59.9686 73.1055 61.6603C73.9748 61.7741 74.8439 61.8876 75.7133 62.0015C76.5683 62.1133 77.4234 62.2252 78.2782 62.3371C78.9496 62.4249 79.6292 62.5127 80.3019 62.4359C80.9974 62.3566 81.6686 62.1026 82.368 62.074C83.4447 62.0301 84.5403 62.5205 85.5757 62.222C84.8363 60.1309 84.5065 57.9786 84.5851 55.7617C81.3228 55.6404 77.9772 55.6053 74.7145 55.484Z" fill="#ECC4D9"/>
<path d="M89.8202 65.3755C87.4444 68.3869 83.7622 70.3187 79.6249 70.3187C75.4877 70.3187 71.8054 68.3869 69.4297 65.3755L76.3879 63.7202H82.8619L89.8202 65.3755Z" fill="#B19AED"/>
<path d="M79.6239 67.4363C76.2992 67.4363 76.3869 63.7192 76.3869 63.7192C76.7704 62.9062 77.0434 62.0411 77.1929 61.1566C77.2482 60.8346 77.2872 60.5094 77.3099 60.1842C77.3132 60.1842 77.3229 60.1744 77.3262 60.1744H81.9249C81.9282 60.1744 81.9379 60.1842 81.9412 60.1842C82.0257 61.407 82.3409 62.6102 82.8642 63.7192C82.8642 63.7192 82.9519 67.4363 79.6239 67.4363Z" fill="#FC916D"/>
<path d="M80.5909 60.8964C80.4252 61.124 80.1326 61.2184 79.8564 61.2769C78.9756 61.459 78.0494 61.42 77.1914 61.1566C77.2467 60.8346 77.2857 60.5094 77.3084 60.1842C77.3117 60.1842 77.3214 60.1744 77.3246 60.1744H77.4059C77.7699 60.3501 78.1696 60.4541 78.5629 60.5322C79.2226 60.659 79.9279 60.7696 80.5909 60.8964Z" fill="#211F20"/>
<path d="M74.8633 49.8537C74.876 51.7347 74.9926 53.615 75.2123 55.4833C75.3641 56.7741 75.5815 58.1038 76.2904 59.1933C76.9872 60.2642 78.1656 61.0288 79.4373 61.1449C80.7091 61.261 82.0412 60.6938 82.7751 59.6483C83.3347 58.8508 83.5268 57.8577 83.6617 56.8924C83.9782 54.6277 84.0549 52.3295 83.8902 50.0485C80.855 49.6777 77.9183 49.7359 74.8633 49.8537Z" fill="#FC916D"/>
<path d="M85.8293 55.2485C85.8293 56.2742 84.9983 57.1058 83.9733 57.1058C82.9482 57.1058 82.1172 56.2742 82.1172 55.2485C82.1172 54.2228 82.9482 53.3912 83.9733 53.3912C84.9983 53.3912 85.8293 54.2228 85.8293 55.2485Z" fill="#FC916D"/>
<path d="M77.1418 55.1311C77.1418 56.1568 76.3108 56.9884 75.2858 56.9884C74.2607 56.9884 73.4297 56.1568 73.4297 55.1311C73.4297 54.1054 74.2607 53.2739 75.2858 53.2739C76.3108 53.2739 77.1418 54.1054 77.1418 55.1311Z" fill="#FC916D"/>
<path d="M84.7191 52.159C84.7451 52.6469 84.5988 53.0696 84.3388 53.4306C84.2218 53.4046 84.0983 53.3916 83.9716 53.3916C83.7961 53.3916 83.6238 53.4176 83.4646 53.4631C83.1818 52.6566 82.5513 51.9737 81.7583 51.655C80.9361 51.32 80.0131 51.372 79.1258 51.3428C78.2353 51.3135 77.3481 51.1314 76.7111 50.5102C76.6493 51.5379 76.2203 52.533 75.5313 53.294C75.4501 53.281 75.3656 53.2745 75.2811 53.2745C74.9853 53.2745 74.7091 53.3428 74.4621 53.4696C73.6788 52.2111 73.5358 50.5232 74.1371 49.1606C74.8131 47.6224 76.3341 46.5102 77.9948 46.25C79.6556 45.9931 81.4073 46.5687 82.6521 47.6972C83.8968 48.8289 84.6281 50.481 84.7191 52.159Z" fill="#ECC4D9"/>
<path d="M79.2054 54.1363C79.2015 54.6917 79.0728 55.2459 78.8306 55.7457C78.6967 55.669 78.4904 55.6937 78.3847 55.8059C78.2788 55.9181 78.2473 56.0885 78.2846 56.2381C78.322 56.3877 78.4211 56.5171 78.543 56.6118C78.6646 56.7064 78.8082 56.7692 78.9541 56.8189" stroke="#231F20" stroke-width="0.4256" stroke-miterlimit="10" stroke-linecap="round" stroke-linejoin="round"/>
<path d="M80.8012 54.5727C80.8103 54.8238 80.9676 55.0222 81.1525 55.0153C81.3374 55.0085 81.4798 54.7997 81.4707 54.5483C81.4616 54.2973 81.3043 54.0989 81.1197 54.1057C80.9344 54.1126 80.7921 54.3217 80.8012 54.5727Z" fill="#231F20"/>
<path d="M77.5864 54.7018C77.5955 54.9529 77.7528 55.1513 77.9374 55.1445C78.1223 55.1376 78.2646 54.9288 78.2555 54.6775C78.2464 54.4264 78.0891 54.228 77.9045 54.2349C77.7196 54.2417 77.5773 54.4508 77.5864 54.7018Z" fill="#231F20"/>
<path d="M81.4419 53.7558C81.6102 53.7877 81.8169 53.7899 81.9157 53.6498C82.0031 53.5259 81.9583 53.3532 81.8878 53.2189C81.6586 52.7818 81.1747 52.4998 80.6853 52.4868C80.4539 52.4807 80.0726 52.5242 79.992 52.7903C79.9082 53.0673 80.3011 53.2761 80.4945 53.3925C80.7857 53.5678 81.1078 53.6924 81.4419 53.7558Z" fill="#211F20"/>
<path d="M77.9818 53.5958C77.7449 53.7981 77.4345 53.9126 77.1231 53.9122C76.9967 53.9119 76.8501 53.88 76.7946 53.7665C76.739 53.653 76.8027 53.5184 76.8742 53.414C77.1147 53.0638 77.6386 52.5626 78.1014 52.5724C78.7345 52.5857 78.2005 53.4088 77.9818 53.5958Z" fill="#211F20"/>
<path d="M79.0898 58.4177L81.6122 57.5588" stroke="#231F20" stroke-width="0.4256" stroke-miterlimit="10" stroke-linecap="round" stroke-linejoin="round"/>
<path d="M92.625 57.3071C92.625 60.3445 91.585 63.138 89.8397 65.3527C89.8332 65.3592 89.8267 65.369 89.8202 65.3755C87.4445 68.3869 83.7622 70.3186 79.625 70.3186C75.4877 70.3186 71.8055 68.3869 69.4298 65.3755C69.4233 65.369 69.4168 65.3592 69.4103 65.3527C67.665 63.138 66.625 60.3445 66.625 57.3071C66.625 50.1232 72.4425 44.2988 79.625 44.2988C86.8075 44.2988 92.625 50.1232 92.625 57.3071Z" stroke="#211F20" stroke-miterlimit="10" stroke-linecap="round" stroke-linejoin="round"/>
<path d="M89.8202 29.6026C87.4444 32.614 83.7622 34.5458 79.6249 34.5458C75.4877 34.5458 71.8054 32.614 69.4297 29.6026L76.3879 27.9473H82.8619L89.8202 29.6026Z" fill="#8C84D9"/>
<path d="M79.6239 31.6635C76.2992 31.6635 76.3869 27.9463 76.3869 27.9463C76.7704 27.1333 77.0434 26.2683 77.1929 25.3837C77.2482 25.0618 77.2872 24.7365 77.3099 24.4113C77.3132 24.4113 77.3229 24.4016 77.3262 24.4016H81.9249C81.9282 24.4016 81.9379 24.4113 81.9412 24.4113C82.0257 25.6341 82.3409 26.8374 82.8642 27.9463C82.8642 27.9463 82.9519 31.6635 79.6239 31.6635Z" fill="#FC916D"/>
<path d="M80.5909 25.1235C80.4252 25.3512 80.1326 25.4455 79.8564 25.504C78.9756 25.6862 78.0494 25.6471 77.1914 25.3837C77.2467 25.0618 77.2857 24.7365 77.3084 24.4113C77.3117 24.4113 77.3214 24.4016 77.3246 24.4016H77.4059C77.7699 24.5772 78.1696 24.6813 78.5629 24.7593C79.2226 24.8861 79.9279 24.9967 80.5909 25.1235Z" fill="#211F20"/>
<path d="M74.8633 14.0808C74.876 15.9618 74.9926 17.8421 75.2123 19.7104C75.3641 21.0012 75.5815 22.331 76.2904 23.4204C76.9872 24.4913 78.1656 25.2559 79.4373 25.372C80.7091 25.4881 82.0412 24.9209 82.7751 23.8754C83.3347 23.078 83.5268 22.0848 83.6617 21.1196C83.9782 18.8548 84.0549 16.5566 83.8902 14.2756C80.855 13.9048 77.9183 13.963 74.8633 14.0808Z" fill="#FC916D"/>
<path d="M74.9245 17.9719C75.0398 18.1013 75.2651 18.0665 75.3882 17.9446C75.5114 17.8223 75.5569 17.6438 75.5897 17.4733C75.7041 16.8821 75.7298 16.2737 75.6658 15.6746C77.8751 16.6772 80.5834 16.5322 82.7417 15.4232C82.6939 16.3885 83.0293 17.4063 83.6143 18.1755C83.9494 18.1706 84.1574 17.8906 84.2975 17.5859C84.7713 16.5576 84.9081 15.3767 84.6823 14.2671C84.6332 14.0252 84.5558 13.7692 84.3612 13.618C84.1662 13.4668 83.8226 13.4938 83.732 13.7234C83.8386 12.9393 83.4921 12.0899 82.9666 11.4986C82.4411 10.9074 81.7137 10.5201 80.9522 10.3061C80.1908 10.0921 79.3926 10.0423 78.6018 10.0459C77.8105 10.0495 76.9863 10.1149 76.3031 10.5149C75.7617 10.8319 75.3427 11.3529 75.1494 11.95C74.956 12.5471 74.9895 13.2151 75.242 13.7897C75.0993 13.5634 74.734 13.5117 74.4789 13.5923C74.2238 13.673 74.0281 13.8899 73.9212 14.1354C73.8143 14.3806 73.7866 14.6531 73.7818 14.9208C73.7639 16.0034 74.2043 17.1641 74.9245 17.9719Z" fill="#6B311A"/>
<path d="M85.8293 19.4756C85.8293 20.5013 84.9983 21.3329 83.9733 21.3329C82.9482 21.3329 82.1172 20.5013 82.1172 19.4756C82.1172 18.4499 82.9482 17.6184 83.9733 17.6184C84.9983 17.6184 85.8293 18.4499 85.8293 19.4756Z" fill="#FC916D"/>
<path d="M77.1418 19.3582C77.1418 20.3839 76.3108 21.2155 75.2858 21.2155C74.2607 21.2155 73.4297 20.3839 73.4297 19.3582C73.4297 18.3325 74.2607 17.501 75.2858 17.501C76.3108 17.501 77.1418 18.3325 77.1418 19.3582Z" fill="#FC916D"/>
<path d="M79.0335 18.5287C79.0299 19.0841 78.9009 19.6383 78.6588 20.1381C78.5249 20.0617 78.3185 20.0861 78.2128 20.1983C78.1069 20.3105 78.0754 20.4809 78.1128 20.6305C78.1501 20.7801 78.2493 20.9095 78.3708 21.0041C78.4924 21.0988 78.636 21.1615 78.7819 21.2113" stroke="#231F20" stroke-width="0.4256" stroke-miterlimit="10" stroke-linecap="round" stroke-linejoin="round"/>
<path d="M80.6293 18.9651C80.6384 19.2161 80.7957 19.4145 80.9803 19.4077C81.1652 19.4009 81.3076 19.1921 81.2985 18.9407C81.2894 18.6896 81.1321 18.4916 80.9475 18.4981C80.7629 18.5049 80.6202 18.714 80.6293 18.9651Z" fill="#231F20"/>
<path d="M77.4145 19.0942C77.4236 19.3452 77.5809 19.5436 77.7655 19.5368C77.9504 19.53 78.0927 19.3212 78.0836 19.0698C78.0745 18.8187 77.9172 18.6204 77.7326 18.6272C77.5477 18.634 77.4054 18.8431 77.4145 19.0942Z" fill="#231F20"/>
<path d="M79.7148 22.4887C80.0083 22.7177 80.4227 22.7817 80.7717 22.6516C81.1208 22.5216 81.3922 22.2022 81.4646 21.8367" stroke="#231F20" stroke-width="0.4256" stroke-miterlimit="10" stroke-linecap="round" stroke-linejoin="round"/>
<path d="M79.9276 17.7238C79.9792 17.7472 80.0387 17.741 80.0953 17.7351C80.8051 17.6613 81.5266 17.6974 82.2253 17.8425C82.2429 17.6662 82.1545 17.4896 82.0202 17.3738C81.886 17.2584 81.7112 17.1982 81.5357 17.1742C81.3602 17.1504 81.1821 17.1605 81.0049 17.1706C80.666 17.1901 80.3195 17.1904 79.9825 17.2301C79.8775 17.2425 79.8226 17.2756 79.8093 17.3852C79.7956 17.4987 79.8063 17.6688 79.9276 17.7238Z" fill="#211F20"/>
<path d="M78.7229 17.7195C78.6732 17.7469 78.6134 17.7449 78.5565 17.7433C77.8431 17.7228 77.1265 17.8129 76.4404 18.0096C76.4099 17.835 76.4846 17.6522 76.6101 17.527C76.7352 17.4018 76.9052 17.3286 77.0784 17.2916C77.2516 17.2548 77.43 17.2516 77.6072 17.2483C77.9465 17.2425 78.2919 17.2168 78.6312 17.2311C78.7365 17.2356 78.7941 17.2646 78.8155 17.3729C78.8376 17.4854 78.8399 17.6558 78.7229 17.7195Z" fill="#211F20"/>
<path d="M92.625 21.5342C92.625 24.5717 91.585 27.3652 89.8397 29.5799C89.8332 29.5864 89.8267 29.5961 89.8202 29.6026C87.4445 32.614 83.7622 34.5458 79.625 34.5458C75.4877 34.5458 71.8055 32.614 69.4298 29.6026C69.4233 29.5961 69.4168 29.5864 69.4103 29.5799C67.665 27.3652 66.625 24.5717 66.625 21.5342C66.625 14.3504 72.4425 8.52591 79.625 8.52591C86.8075 8.52591 92.625 14.3504 92.625 21.5342Z" stroke="#211F20" stroke-miterlimit="10" stroke-linecap="round" stroke-linejoin="round"/>
<path d="M89.8202 101.148C87.4444 104.16 83.7622 106.091 79.6249 106.091C75.4877 106.091 71.8054 104.16 69.4297 101.148L76.3879 99.493H82.8619L89.8202 101.148Z" fill="#FFCF2E"/>
<path d="M77.2435 92.3459C77.4362 93.1872 77.5825 94.1105 77.1935 94.8809C76.8633 95.5349 76.2045 95.9551 75.5431 96.2689C74.8814 96.5827 74.1762 96.8296 73.5996 97.2813C73.0231 97.733 72.5869 98.4598 72.7296 99.1782C72.1179 98.4299 71.7741 97.4673 71.7734 96.5005C71.7728 95.5336 72.1147 94.5703 72.7247 93.8211C73.0799 93.385 73.5197 93.022 73.8596 92.5736C74.1992 92.1251 74.4368 91.5475 74.2958 91.0028C75.3013 91.3505 76.29 91.8728 77.2435 92.3459Z" fill="#49316B"/>
<path d="M79.6239 103.209C76.2992 103.209 76.3869 99.492 76.3869 99.492C76.7704 98.679 77.0434 97.814 77.1929 96.9294C77.2482 96.6074 77.2872 96.2822 77.3099 95.957C77.3132 95.957 77.3229 95.9473 77.3262 95.9473H81.9249C81.9282 95.9473 81.9379 95.957 81.9412 95.957C82.0257 97.1798 82.3409 98.3831 82.8642 99.492C82.8642 99.492 82.9519 103.209 79.6239 103.209Z" fill="#FC916D"/>
<path d="M80.5909 96.6692C80.4252 96.8969 80.1326 96.9912 79.8564 97.0497C78.9756 97.2318 78.0494 97.1928 77.1914 96.9294C77.2467 96.6074 77.2857 96.2822 77.3084 95.957C77.3117 95.957 77.3214 95.9473 77.3246 95.9473H77.4059C77.7699 96.1229 78.1696 96.227 78.5629 96.305C79.2226 96.4318 79.9279 96.5424 80.5909 96.6692Z" fill="#211F20"/>
<path d="M74.8633 85.6265C74.876 87.5075 74.9926 89.3878 75.2123 91.2562C75.3641 92.5469 75.5815 93.8767 76.2904 94.9661C76.9872 96.037 78.1656 96.8016 79.4373 96.9177C80.7091 97.0338 82.0412 96.4666 82.7751 95.4211C83.3347 94.6237 83.5268 93.6305 83.6617 92.6653C83.9782 90.4005 84.0549 88.1023 83.8902 85.8213C80.855 85.4505 77.9183 85.5088 74.8633 85.6265Z" fill="#FC916D"/>
<path d="M85.8293 91.0214C85.8293 92.0471 84.9983 92.8786 83.9733 92.8786C82.9482 92.8786 82.1172 92.0471 82.1172 91.0214C82.1172 89.9956 82.9482 89.1641 83.9733 89.1641C84.9983 89.1641 85.8293 89.9956 85.8293 91.0214Z" fill="#FC916D"/>
<path d="M77.1418 90.904C77.1418 91.9297 76.3108 92.7612 75.2858 92.7612C74.2607 92.7612 73.4297 91.9297 73.4297 90.904C73.4297 89.8782 74.2607 89.0467 75.2858 89.0467C76.3108 89.0467 77.1418 89.8782 77.1418 90.904Z" fill="#FC916D"/>
<path d="M84.6797 89.3043C84.4619 89.2132 84.2247 89.1644 83.9744 89.1644C83.7632 89.1644 83.5584 89.2002 83.3699 89.2685C83.2009 88.5855 82.6777 87.9872 82.0049 87.7693C81.4004 87.5709 80.7472 87.662 80.1134 87.6424C78.8687 87.6067 77.6662 87.0213 76.7269 86.205C76.8147 87.2424 76.5449 88.3026 76.0054 89.1937C75.7844 89.0994 75.5407 89.0473 75.2839 89.0473C74.9427 89.0473 74.6242 89.1384 74.3512 89.301C73.8247 88.2311 73.4964 87.0603 73.4672 85.8766C73.4574 85.5026 73.4737 85.1188 73.6004 84.7676C73.7239 84.4131 73.9709 84.0879 74.3154 83.9416C74.6599 83.792 75.1052 83.8603 75.3424 84.153C75.3327 83.3367 75.8104 82.592 76.4279 82.0554C77.7377 80.9204 79.6942 80.6472 81.3159 81.2586C82.9377 81.87 84.1987 83.2944 84.7414 84.9432C85.2094 86.3611 85.1314 87.8864 84.6797 89.3043Z" fill="#49316B"/>
<path d="M79.2167 90.0988C79.2128 90.6542 79.0841 91.2084 78.8423 91.7082C78.7084 91.6315 78.5021 91.6562 78.3964 91.7684C78.2905 91.8806 78.259 92.051 78.2963 92.2006C78.3337 92.3502 78.4329 92.4796 78.5544 92.5742C78.676 92.6689 78.8196 92.7316 78.9655 92.7814" stroke="#231F20" stroke-width="0.4256" stroke-miterlimit="10" stroke-linecap="round" stroke-linejoin="round"/>
<path d="M80.8129 90.5352C80.822 90.7862 80.9793 90.9846 81.1639 90.9778C81.3488 90.971 81.4912 90.7618 81.4821 90.5108C81.473 90.2597 81.3157 90.0617 81.1311 90.0682C80.9465 90.075 80.8038 90.2841 80.8129 90.5352Z" fill="#231F20"/>
<path d="M77.5981 90.6643C77.6072 90.9153 77.7645 91.1137 77.9491 91.1069C78.134 91.1001 78.2763 90.8913 78.2672 90.6399C78.2581 90.3888 78.1008 90.1905 77.9162 90.1973C77.7313 90.2041 77.589 90.4132 77.5981 90.6643Z" fill="#231F20"/>
<path d="M79.9582 89.0194C79.8857 88.7625 79.9367 88.4734 80.0927 88.2568C81.0495 88.2353 82.0404 88.6721 82.6882 89.3771C82.5403 89.6422 80.8669 89.0392 79.9582 89.0194Z" fill="#231F20"/>
<path d="M78.7668 88.835C78.7661 88.568 78.6381 88.3043 78.4288 88.1384C77.5029 88.3794 76.6689 89.0708 76.2383 89.9261C76.4531 90.1404 77.8984 89.1026 78.7668 88.835Z" fill="#231F20"/>
<path d="M78.9375 94.2796C79.4884 94.2552 80.0389 94.2308 80.5898 94.2068" stroke="#231F20" stroke-width="0.4256" stroke-miterlimit="10" stroke-linecap="round" stroke-linejoin="round"/>
<path d="M92.625 93.0799C92.625 96.1174 91.585 98.9109 89.8397 101.126C89.8332 101.132 89.8267 101.142 89.8202 101.148C87.4445 104.16 83.7622 106.091 79.625 106.091C75.4877 106.091 71.8055 104.16 69.4298 101.148C69.4233 101.142 69.4168 101.132 69.4103 101.126C67.665 98.9109 66.625 96.1174 66.625 93.0799C66.625 85.8961 72.4425 80.0716 79.625 80.0716C86.8075 80.0716 92.625 85.8961 92.625 93.0799Z" stroke="#211F20" stroke-miterlimit="10" stroke-linecap="round" stroke-linejoin="round"/>
<path d="M47.2742 120.934C47.2742 120.934 48.283 122.165 48.0187 123.505C47.7545 124.845 46.4864 125.603 44.3547 125.603C42.223 125.603 40.6939 124.929 39.4576 124.951C38.4543 124.968 37.2382 125.603 35.4237 125.603C33.6092 125.603 31.8126 124.827 31.8126 124.14C31.8126 123.452 31.7899 121.508 32.3823 121.087C32.9755 120.667 47.2742 120.934 47.2742 120.934Z" fill="#211F20"/>
<path d="M38.1078 110.514C38.0266 111.828 37.6756 113.324 37.5943 114.638C36.7363 115.422 35.4103 115.757 34.3248 115.34C34.1656 114.456 33.9121 113.5 33.7268 112.553C33.6716 112.274 33.6228 111.997 33.5838 111.721C33.5318 111.347 33.4993 110.979 33.4961 110.622C34.8058 110.407 36.7883 110.378 38.1078 110.514Z" fill="#FC916D"/>
<path d="M32.3837 121.087C32.1659 119.009 32.2833 116.897 32.7292 114.855C32.7909 114.572 32.8631 114.282 33.034 114.048C33.2053 113.814 33.5004 113.647 33.7831 113.711C34.0951 113.781 34.2833 114.088 34.5089 114.315C35.076 114.885 36.0646 114.967 36.7182 114.498C37.1628 114.18 37.5226 113.623 38.0692 113.64C38.3692 113.65 38.6357 113.846 38.8177 114.085C38.9997 114.323 39.1144 114.605 39.2519 114.872C39.6591 115.663 40.2815 116.342 41.0339 116.817C41.7707 117.281 42.6127 117.545 43.4418 117.811C44.2709 118.077 45.1104 118.356 45.8302 118.846C46.5501 119.336 47.1475 120.072 47.2752 120.934C46.6236 121.862 45.6954 122.589 44.606 122.901C43.5166 123.213 42.3212 123.139 41.278 122.697C40.5912 122.405 39.9354 121.952 39.1895 121.946C38.6344 121.942 38.1134 122.19 37.5821 122.35C35.8443 122.876 33.7233 122.314 32.3837 121.087Z" fill="#FFC454"/>
<path d="M27.8129 120.934C27.8129 120.934 28.8217 122.165 28.5575 123.505C28.2933 124.845 27.0251 125.603 24.8934 125.603C22.7621 125.603 21.2326 124.929 19.9967 124.951C18.9934 124.968 17.7772 125.603 15.9628 125.603C14.1483 125.603 12.3517 124.827 12.3517 124.14C12.3517 123.452 12.3289 121.508 12.9214 121.087C13.5142 120.667 27.8129 120.934 27.8129 120.934Z" fill="#211F20"/>
<path d="M18.8106 110.622C18.7293 111.935 18.2158 113.324 18.1346 114.638C17.2798 115.422 15.9506 115.757 14.8651 115.34C14.7058 114.446 14.4133 113.565 14.2021 112.674C14.1273 112.358 14.0623 112.043 14.0168 111.721C13.9746 111.431 13.9486 111.139 13.9453 110.846C15.2551 110.631 17.4911 110.485 18.8106 110.622Z" fill="#FC916D"/>
<path d="M37.8168 111.721L33.725 112.553C33.6698 112.274 33.621 111.997 33.582 111.721H37.8168Z" fill="#211F20"/>
<path d="M18.3316 111.721L14.2009 112.674C14.1261 112.358 14.0611 112.043 14.0156 111.721H18.3316Z" fill="#211F20"/>
<path d="M12.9228 121.087C12.705 119.009 12.8223 116.897 13.2682 114.855C13.33 114.572 13.4021 114.282 13.5731 114.048C13.7444 113.814 14.0395 113.647 14.3222 113.711C14.6342 113.781 14.8224 114.088 15.0479 114.315C15.6151 114.885 16.6037 114.967 17.2573 114.498C17.7019 114.18 18.0617 113.623 18.6083 113.64C18.9083 113.65 19.1748 113.846 19.3568 114.085C19.5388 114.323 19.6535 114.605 19.791 114.872C20.1982 115.663 20.8206 116.342 21.573 116.817C22.3097 117.281 23.1518 117.545 23.9809 117.811C24.81 118.077 25.6494 118.356 26.3693 118.846C27.0892 119.336 27.6865 120.072 27.8143 120.934C27.163 121.862 26.2344 122.589 25.145 122.901C24.0556 123.213 22.8603 123.139 21.817 122.697C21.1303 122.405 20.4745 121.952 19.7286 121.946C19.1735 121.942 18.6525 122.19 18.1211 122.35C16.3834 122.876 14.2621 122.314 12.9228 121.087Z" fill="#FFC454"/>
<path d="M19.7944 111.722H13.4511C13.0045 106.288 11.7302 100.947 11.2901 95.5122C10.8501 90.0773 11.1468 84.2727 13.9226 79.5802C12.0412 75.3597 13.1121 70.3739 11.7809 65.9485C11.3678 64.5745 10.7279 63.2756 10.3418 61.8938C9.7077 59.6235 9.78278 57.2014 10.2196 54.8849C10.6564 52.5685 11.4435 50.3346 12.2281 48.1118C14.2655 46.7251 16.7888 46.0949 19.2523 46.1456C21.7158 46.1967 24.1572 47.0328 26.1355 48.5027C26.1651 59.6889 24.3896 69.8549 23.164 80.9738C22.6629 85.5257 21.1841 101.851 19.7944 111.722Z" fill="#5B4D7D"/>
<path d="M32.6516 111.722H38.7226C39.9807 101.269 42.7282 90.2467 41.1864 79.831C39.5374 68.6913 36.6699 57.7328 32.6519 47.2143C30.7055 47.6383 28.7318 48.3128 26.9222 49.146C25.1129 49.9795 23.4388 51.2143 22.3835 52.9047C21.3279 54.5952 20.9623 56.7783 21.7131 58.6245C24.8126 66.2448 27.5062 74.026 32.8482 80.2801C31.0311 82.2567 30.0591 85.1836 29.7932 87.8561C29.5274 90.5287 29.8374 93.2214 30.1471 95.8894C30.7474 101.061 32.051 106.551 32.6516 111.722Z" fill="#5B4D7D"/>
<path d="M19.2414 25.3196C17.0629 25.5616 12.887 26.8114 12.313 27.3337C11.7391 27.8559 11.9737 33.8352 12.9393 37.6736C13.9049 41.5121 12.1564 48.144 12.1564 48.144C15.4288 52.2137 29.6722 52.5955 33.2144 47.8569C33.9957 45.45 31.0528 28.3252 30.736 26.4221C29.5588 25.9239 26.0982 25.5327 26.0982 25.5327L19.2414 25.3196Z" fill="#FFC454"/>
<path d="M39.8985 45.97C40.3997 46.2263 41.0285 46.0991 41.5004 45.7924C41.9723 45.4858 42.3201 45.0253 42.6545 44.5723C46.1265 39.8698 49.1344 34.7656 51.9183 29.6254C52.9521 29.348 53.8722 28.5841 54.2222 27.572C54.5726 26.56 54.3558 25.2679 53.515 24.6052C54.194 23.6826 54.8729 22.7596 55.5521 21.837C55.6974 21.6396 55.8443 21.3628 55.6938 21.1693C55.6074 21.0581 55.4472 21.0266 55.3094 21.0558C55.1716 21.0854 55.0503 21.1648 54.9333 21.2435C53.841 21.9765 52.7669 22.7495 51.773 23.6117C51.2628 24.0543 50.8868 24.6348 50.6043 25.2488C50.3219 25.8624 50.1276 26.5125 49.9345 27.16C46.1817 30.2296 43.1449 33.4378 40.385 37.4249C39.4448 38.7829 39.3177 41.2204 39.2007 42.8682C39.124 43.9501 38.9336 45.4767 39.8985 45.97Z" fill="#FC916D"/>
<path d="M32.3178 37.9032C33.1391 39.6288 34.2843 41.1992 35.6763 42.5082C35.5041 43.1397 35.5778 43.8545 35.9363 44.4022C36.2948 44.9498 36.8951 45.3329 37.5425 45.4269C37.5337 46.0064 37.8935 46.5271 38.4551 46.6692C39.0167 46.8113 39.6572 46.5232 39.9244 46.009C39.511 43.3475 39.6085 40.6103 40.2156 37.9862C40.3443 37.6034 40.4678 37.258 40.4236 36.9354C40.3797 36.6128 40.2578 36.4525 39.9618 36.3169C39.6959 36.1952 39.3836 36.2008 39.1051 36.2899C36.8515 32.6466 33.9688 29.2345 30.7386 26.4221C30.293 30.2813 30.6486 34.3962 32.3178 37.9032Z" fill="#FFC454"/>
<path d="M16.8743 56.6862C16.3553 57.6345 15.6994 58.445 14.909 59.1822C9.46692 55.1822 4.60329 50.3174 0.808594 44.7287C2.75892 43.153 5.68392 42.6864 7.92024 43.8197C9.03532 44.3846 9.72139 45.4435 10.3759 46.5089C11.6597 48.5983 12.9431 50.6875 14.2269 52.7769C15.0472 54.1119 16.0543 55.3513 16.8743 56.6862Z" fill="#FC916D"/>
<path d="M12.9766 37.8281C11.339 39.446 10.0432 40.6347 8.24432 42.1573C8.42274 42.3316 8.6041 42.5101 8.7159 42.7332C8.82737 42.9563 8.85824 43.2357 8.73117 43.4503C8.65089 43.5862 8.51537 43.6832 8.36977 43.744C8.22417 43.8051 8.0451 43.8591 7.89267 43.8184C5.5218 43.1888 2.93382 43.5056 0.807023 44.7287C0.340648 44.557 0.00459718 44.0793 4.71787e-05 43.582C-0.00450282 43.0848 0.320497 42.596 0.783297 42.4155C0.527197 41.8805 0.549947 41.221 0.841797 40.7046C1.13397 40.1885 1.65332 39.7657 2.24352 39.7101C4.27445 34.617 7.81175 30.2267 12.4183 27.2563C12.7027 27.4963 13.0403 27.8143 13.1811 28.159C14.3098 30.9204 15.0979 35.7325 12.9766 37.8281Z" fill="#FFC454"/>
<path d="M23.281 29.2628C21.5796 29.2628 20.0388 27.4351 19.2422 25.3199C20.0141 24.1463 20.6969 19.7752 20.5809 17.8096L25.2069 21.5248C25.2043 21.5775 25.2014 21.6353 25.2014 21.6991C25.1988 22.1641 25.2622 22.8175 25.4256 23.5788C25.5446 24.116 25.8641 24.9154 26.0994 25.5326C26.3174 27.2273 24.9827 29.2628 23.281 29.2628Z" fill="#FC916D"/>
<path d="M25.4262 23.5791C23.6969 22.7125 22.3579 21.0903 21.8516 19.2217C22.8422 20.1794 24.007 20.9853 25.202 21.6994C25.1994 22.1642 25.2628 22.8175 25.4262 23.5791Z" fill="#211F20"/>
<path d="M21.2267 11.8567C22.4887 11.2456 23.9164 10.9815 25.3132 11.1012C26.7101 11.2209 28.0709 11.8212 29.211 12.6382C29.64 14.9169 29.8112 17.2444 29.7196 19.5615C29.69 20.3134 29.614 21.1147 29.1466 21.704C28.8252 22.1095 28.3445 22.3697 27.8414 22.4893C27.3383 22.609 26.8118 22.597 26.299 22.53C24.1679 22.2503 21.864 20.5518 20.7265 18.727L20.7031 16.7829C20.7343 16.3302 20.7655 15.8772 20.7967 15.4245L21.2267 11.8567Z" fill="#FC916D"/>
<path d="M20.9336 16.6642C21.1874 16.4857 21.3106 16.1758 21.4019 15.8792C21.6515 15.0678 21.7653 14.2151 21.737 13.3666C23.7331 13.6635 25.7039 13.9348 27.7196 13.8375C28.3751 13.806 29.0336 13.7422 29.6634 13.5585C30.2933 13.3748 30.8971 13.0642 31.3537 12.5926C31.8104 12.1211 32.1084 11.4781 32.0892 10.8219C32.0697 10.1656 31.7041 9.51096 31.1162 9.21925C30.5282 8.92754 29.7385 9.0599 29.3316 9.57503C29.3235 9.04656 29.2464 8.50444 28.9861 8.0446C28.7258 7.58476 28.2542 7.21922 27.7264 7.19841C27.2682 7.18052 26.8275 7.42248 26.5184 7.76167C26.2093 8.10086 26.0159 8.52883 25.8625 8.96136C25.7309 8.15029 24.9077 7.51614 24.0903 7.59614C23.2733 7.67614 22.5885 8.45826 22.6164 9.27941C22.3386 8.7516 21.6655 8.49501 21.0854 8.63322C20.5052 8.77111 20.0402 9.25405 19.8455 9.81796C19.6508 10.3819 19.7051 11.0124 19.9144 11.5712C19.8829 11.1952 19.3505 10.9646 18.9803 11.0372C18.6102 11.1097 18.3277 11.4333 18.2055 11.7903C18.0833 12.1474 18.095 12.5354 18.1266 12.9113C18.3076 15.0769 19.0837 17.1416 19.8523 19.1742C19.9095 19.3254 19.9729 19.4851 20.1032 19.5804C20.2647 19.6984 20.5121 19.6776 20.6515 19.5339C20.7909 19.3904 20.8046 19.1423 20.6817 18.9843C20.7405 18.2174 20.8751 17.4311 20.9336 16.6642Z" fill="#211F20"/>
<path d="M22.2233 17.3325C22.2233 18.341 21.4063 19.1582 20.3988 19.1582C19.3909 19.1582 18.5742 18.3407 18.5742 17.3325C18.5742 16.3241 19.3913 15.5068 20.3988 15.5068C21.4063 15.5068 22.2233 16.3241 22.2233 17.3325Z" fill="#FC916D"/>
<path d="M27.1211 15.9761C27.1422 16.4668 27.2742 16.9527 27.5039 17.3865C27.6196 17.3147 27.8029 17.3296 27.9001 17.4252C27.9973 17.5212 28.0308 17.6704 28.0025 17.8041C27.9745 17.9374 27.8907 18.0548 27.7864 18.1426C27.6817 18.2301 27.5569 18.2903 27.4295 18.3391" stroke="#231F20" stroke-width="0.4256" stroke-miterlimit="10" stroke-linecap="round" stroke-linejoin="round"/>
<path d="M25.725 16.4132C25.725 16.6356 25.5924 16.8158 25.4289 16.8158C25.2654 16.8158 25.1328 16.6356 25.1328 16.4132C25.1328 16.191 25.2654 16.0106 25.4289 16.0106C25.5924 16.0109 25.725 16.191 25.725 16.4132Z" fill="#231F20"/>
<path d="M28.5687 16.4239C28.5687 16.6463 28.4361 16.8265 28.2726 16.8265C28.1092 16.8265 27.9766 16.6463 27.9766 16.4239C27.9766 16.2018 28.1092 16.0216 28.2726 16.0216C28.4361 16.0216 28.5687 16.2018 28.5687 16.4239Z" fill="#231F20"/>
<path d="M25.2225 15.3123C25.5068 15.2557 25.7987 15.2557 26.0876 15.233C26.1809 15.2255 26.2842 15.2105 26.3431 15.138C26.3882 15.0824 26.396 15.0066 26.4003 14.9354C26.4061 14.8411 26.4081 14.7416 26.3658 14.657C26.3109 14.5468 26.1884 14.4821 26.0658 14.4684C25.9433 14.4548 25.8205 14.4847 25.7031 14.5227C25.3369 14.6414 24.9969 14.8401 24.7138 15.1009C24.6004 15.2053 24.4945 15.3221 24.4298 15.4623C24.4093 15.5068 24.3927 15.5549 24.3947 15.604C24.3957 15.632 24.4083 15.7003 24.4425 15.7084C24.4766 15.7166 24.512 15.6616 24.5331 15.6414C24.5946 15.5823 24.6638 15.5315 24.7372 15.4889C24.8874 15.4011 25.0538 15.3458 25.2225 15.3123Z" fill="#231F20"/>
<path d="M28.5481 15.2808C28.2637 15.2242 27.9719 15.2242 27.683 15.2014C27.5897 15.194 27.4863 15.179 27.4275 15.1065C27.3823 15.0509 27.3745 14.9751 27.3703 14.9036C27.3645 14.8092 27.3625 14.7097 27.4048 14.6252C27.4597 14.5149 27.5822 14.4502 27.7047 14.4366C27.8273 14.4229 27.9501 14.4528 28.0674 14.4909C28.4337 14.6096 28.7737 14.8083 29.0567 15.0688C29.1702 15.1732 29.2761 15.2899 29.3408 15.4301C29.3613 15.4746 29.3778 15.5228 29.3759 15.5719C29.3749 15.5998 29.3622 15.6681 29.3281 15.6763C29.294 15.6844 29.2586 15.6294 29.2374 15.6093C29.176 15.5501 29.1068 15.4997 29.0333 15.4567C28.8829 15.3696 28.7168 15.3143 28.5481 15.2808Z" fill="#231F20"/>
<path d="M25.6211 18.5355C26.0101 18.983 26.5928 19.2555 27.1853 19.2669C27.1187 19.4783 26.9266 19.664 26.7183 19.7394C26.51 19.8145 26.2672 19.7869 26.081 19.6669C25.9074 19.555 25.7891 19.3723 25.7173 19.1784C25.6455 18.9849 25.65 18.74 25.6211 18.5355Z" fill="#211F20"/>
<path d="M27.048 25.9518C26.905 26.9902 26.7052 28.0416 26.2082 28.9646C25.7113 29.8875 24.8728 30.6758 23.8455 30.8826C22.5861 31.1363 21.2842 30.467 20.4349 29.5028C19.5857 28.5382 19.1011 27.3148 18.6328 26.1177" stroke="#211F20" stroke-width="0.5" stroke-miterlimit="10" stroke-linecap="round" stroke-linejoin="round"/>
<path d="M13.0039 27.1249C14.8197 30.3269 14.8584 34.4671 13.1024 37.7023" stroke="#211F20" stroke-width="0.5" stroke-miterlimit="10" stroke-linecap="round" stroke-linejoin="round"/>
<path d="M7.31799 42.7313C5.25554 42.2236 3.10144 42.0913 0.992188 42.3423" stroke="#211F20" stroke-width="0.5" stroke-miterlimit="10" stroke-linecap="round" stroke-linejoin="round"/>
<path d="M7.93162 41.9647C6.27184 40.8694 4.38944 40.114 2.43359 39.7579" stroke="#211F20" stroke-width="0.5" stroke-miterlimit="10" stroke-linecap="round" stroke-linejoin="round"/>
<path d="M16.5938 46.9232C20.8012 47.7967 25.1887 47.7931 29.3945 46.9125" stroke="#211F20" stroke-width="0.5" stroke-miterlimit="10" stroke-linecap="round" stroke-linejoin="round"/>
<path d="M16.2461 42.4529C19.4392 44.7127 23.3311 45.9687 27.2418 46.0009" stroke="#211F20" stroke-width="0.5" stroke-miterlimit="10" stroke-linecap="round" stroke-linejoin="round"/>
<path d="M30.8047 26.425C32.0628 30.2228 32.7059 34.2238 32.702 38.2249" stroke="#211F20" stroke-width="0.5" stroke-miterlimit="10" stroke-linecap="round" stroke-linejoin="round"/>
<path d="M38.7004 39.4987C38.0881 41.3199 37.7111 43.2204 37.582 45.1378" stroke="#211F20" stroke-width="0.5" stroke-miterlimit="10" stroke-linecap="round" stroke-linejoin="round"/>
<path d="M38.9689 36.3331C37.5256 38.06 36.4446 40.0883 35.8164 42.25" stroke="#211F20" stroke-width="0.5" stroke-miterlimit="10" stroke-linecap="round" stroke-linejoin="round"/>
<path d="M18.2458 53.3181C17.7332 56.1812 15.5333 58.8118 13.9766 60.2974" stroke="#211F20" stroke-width="0.5" stroke-miterlimit="10" stroke-linecap="round" stroke-linejoin="round"/>
<path d="M14.6944 59.5702C13.7782 66.1589 14.3184 72.8374 15.8767 79.3044C13.9098 84.3198 13.3508 89.7996 13.5494 95.1837C13.7483 100.568 14.6817 105.894 15.6135 111.201" stroke="#211F20" stroke-width="0.5" stroke-miterlimit="10" stroke-linecap="round" stroke-linejoin="round"/>
<path d="M33.3361 49.9206C27.763 53.455 20.6334 54.4235 14.3203 52.5038" stroke="#211F20" stroke-width="0.5" stroke-miterlimit="10" stroke-linecap="round" stroke-linejoin="round"/>
<path d="M24.9219 66.5427C25.5169 61.4762 25.7714 56.5054 25.1598 51.441" stroke="#211F20" stroke-width="0.5" stroke-miterlimit="10" stroke-linecap="round" stroke-linejoin="round"/>
<path d="M27.3177 51.1245C27.5748 52.8608 27.6843 54.6192 27.645 56.374C27.6274 57.1598 27.5673 57.9858 27.1383 58.6443C26.7984 59.166 26.2553 59.5289 25.6768 59.7588C25.0983 59.9887 24.4801 60.0974 23.8672 60.2047" stroke="#211F20" stroke-width="0.5" stroke-miterlimit="10" stroke-linecap="round" stroke-linejoin="round"/>
<path d="M19 79.8261C20.0039 80.1354 21.0839 80.1952 22.1158 79.9988" stroke="#211F20" stroke-width="0.5" stroke-miterlimit="10" stroke-linecap="round" stroke-linejoin="round"/>
<path d="M38.082 79.8781C39.0164 80.0586 39.9904 80.0306 40.9131 79.7965" stroke="#211F20" stroke-width="0.5" stroke-miterlimit="10" stroke-linecap="round" stroke-linejoin="round"/>
<path d="M34.8027 80.2378C32.7484 82.8235 31.8189 86.1595 31.6077 89.4558C31.3967 92.7521 31.8537 96.051 32.3097 99.3223C32.8586 103.26 33.4075 107.198 33.9561 111.136" stroke="#211F20" stroke-width="0.5" stroke-miterlimit="10" stroke-linecap="round" stroke-linejoin="round"/>
<path d="M13.8477 110.454C15.6898 110.456 17.5315 110.48 19.3736 110.482V110.532" stroke="#211F20" stroke-width="0.5" stroke-miterlimit="10" stroke-linecap="round" stroke-linejoin="round"/>
<path d="M32.9375 110.532H38.5285" stroke="#211F20" stroke-width="0.5" stroke-miterlimit="10" stroke-linecap="round" stroke-linejoin="round"/>
<path d="M39.8852 116.055C40.9106 114.314 41.5511 112.348 41.7478 110.337C41.7637 110.174 41.7764 110.007 41.7328 109.849C41.6893 109.692 41.5778 109.543 41.4202 109.499C41.1416 109.423 40.8933 109.686 40.736 109.929C40.216 110.731 39.8624 111.638 39.6869 112.577C39.5322 113.402 39.4978 114.279 39.644 115.108C39.6947 115.396 39.5209 116.047 39.8852 116.055ZM39.8852 116.055C40.2248 113.966 41.2135 111.988 42.6792 110.463C42.8765 110.258 43.1635 110.045 43.4186 110.171C43.5622 110.241 43.6412 110.406 43.6526 110.565C43.664 110.725 43.6185 110.883 43.57 111.035C43.0812 112.575 42.22 113.992 41.0896 115.144C40.8797 115.358 40.2134 116.062 39.8852 116.055Z" stroke="#211F20" stroke-width="0.5" stroke-miterlimit="10" stroke-linecap="round" stroke-linejoin="round"/>
<path d="M20.651 116.329C21.6764 114.589 22.317 112.622 22.5136 110.611C22.5295 110.448 22.5422 110.281 22.4987 110.123C22.4551 109.966 22.3436 109.817 22.186 109.773C21.9075 109.697 21.6592 109.96 21.5019 110.203C20.9822 111.005 20.6286 111.912 20.4525 112.851C20.2981 113.676 20.2633 114.553 20.4096 115.382C20.4606 115.67 20.2867 116.322 20.651 116.329ZM20.651 116.329C20.9907 114.241 21.9793 112.262 23.4451 110.737C23.6423 110.532 23.9293 110.319 24.1844 110.445C24.3281 110.516 24.4071 110.68 24.4184 110.84C24.4298 110.999 24.3843 111.157 24.3359 111.309C23.8471 112.849 22.9858 114.266 21.8555 115.418C21.6455 115.632 20.9793 116.336 20.651 116.329Z" stroke="#211F20" stroke-width="0.5" stroke-miterlimit="10" stroke-linecap="round" stroke-linejoin="round"/>
<path d="M34.3697 122.723C34.1286 121.874 34.0795 120.952 34.3554 120.113C34.6317 119.275 35.2599 118.532 36.0903 118.234C36.9018 117.942 37.8245 118.095 38.5925 118.487C39.3608 118.878 39.9952 119.488 40.5698 120.132C41.4814 121.152 42.2734 122.279 42.925 123.483" stroke="#211F20" stroke-width="0.5" stroke-miterlimit="10" stroke-linecap="round" stroke-linejoin="round"/>
<path d="M14.6354 122.723C14.3942 121.874 14.3451 120.952 14.6211 120.113C14.8973 119.275 15.5255 118.532 16.3559 118.234C17.1674 117.942 18.0901 118.095 18.8581 118.487C19.6264 118.878 20.2608 119.488 20.8354 120.132C21.747 121.152 22.5394 122.279 23.1907 123.483" stroke="#211F20" stroke-width="0.5" stroke-miterlimit="10" stroke-linecap="round" stroke-linejoin="round"/>
<path d="M149.687 120.934C149.687 120.934 148.678 122.165 148.943 123.505C149.207 124.845 150.475 125.603 152.606 125.603C154.738 125.603 156.267 124.929 157.503 124.951C158.507 124.968 159.723 125.603 161.537 125.603C163.352 125.603 165.148 124.827 165.148 124.14C165.148 123.452 165.171 121.508 164.579 121.087C163.986 120.667 149.687 120.934 149.687 120.934Z" fill="#211F20"/>
<path d="M163.412 110.622C163.409 110.966 163.379 111.321 163.334 111.682C163.184 112.905 162.843 114.183 162.635 115.34C161.553 115.757 160.224 115.422 159.366 114.638C159.327 113.991 159.193 113.298 159.06 112.605C158.976 112.179 158.891 111.75 158.829 111.334C158.787 111.054 158.755 110.781 158.738 110.514C160.055 110.378 162.102 110.407 163.412 110.622Z" fill="#FC916D"/>
<path d="M164.579 121.087C164.796 119.009 164.679 116.896 164.233 114.855C164.171 114.572 164.099 114.281 163.928 114.048C163.757 113.814 163.462 113.647 163.179 113.711C162.867 113.781 162.679 114.088 162.453 114.315C161.886 114.885 160.898 114.967 160.244 114.498C159.8 114.18 159.44 113.623 158.893 113.64C158.593 113.65 158.327 113.846 158.145 114.085C157.963 114.323 157.848 114.605 157.71 114.872C157.303 115.663 156.681 116.342 155.928 116.816C155.192 117.281 154.35 117.545 153.521 117.811C152.691 118.077 151.852 118.356 151.132 118.846C150.412 119.337 149.815 120.072 149.688 120.934C150.339 121.862 151.267 122.589 152.357 122.901C153.446 123.213 154.641 123.139 155.685 122.697C156.371 122.405 157.027 121.952 157.773 121.946C158.328 121.942 158.849 122.19 159.381 122.35C161.118 122.876 163.239 122.314 164.579 121.087Z" fill="#EADFED"/>
<path d="M163.333 111.682L159.059 112.605C158.974 112.179 158.89 111.75 158.828 111.334L163.333 111.682Z" fill="#211F20"/>
<path d="M217.784 74.9535C217.784 74.9535 219.367 75.1109 220.334 74.148C221.302 73.185 221.229 71.7086 220.047 69.9339C218.865 68.1593 217.456 67.2591 216.788 66.2181C216.247 65.3729 216.1 64.0083 215.094 62.4977C214.087 60.9871 212.446 59.9211 211.874 60.3022C211.303 60.6834 209.673 61.7429 209.652 62.4694C209.631 63.1959 217.784 74.9535 217.784 74.9535Z" fill="#211F20"/>
<path d="M207.181 70.3869C206.839 70.6471 206.505 70.956 206.173 71.278C205.942 71.5056 205.715 71.7365 205.487 71.9707C205.029 72.426 204.574 72.8748 204.103 73.2325C203.258 72.2113 202.237 70.3902 201.691 69.1804C202.969 68.3479 204.555 67.8828 205.952 67.2747C206.901 67.9479 207.356 69.2389 207.181 70.3869Z" fill="#FC916D"/>
<path d="M206.174 71.278C205.943 71.5056 205.715 71.7365 205.488 71.9707L205.472 71.9804L203.531 68.621L206.174 71.278Z" fill="#211F20"/>
<path d="M209.651 62.4694C207.802 63.4405 206.11 64.7098 204.66 66.2132C204.459 66.422 204.258 66.6428 204.158 66.915C204.058 67.1872 204.083 67.5254 204.293 67.7254C204.525 67.9462 204.884 67.9329 205.198 67.995C205.986 68.1511 206.603 68.9287 206.576 69.7326C206.557 70.2796 206.294 70.8881 206.611 71.3336C206.786 71.5778 207.097 71.691 207.396 71.7102C207.696 71.7294 207.994 71.6689 208.292 71.6351C209.175 71.5352 210.085 71.677 210.897 72.0403C211.692 72.3961 212.378 72.9512 213.059 73.494C213.741 74.0371 214.438 74.5808 215.245 74.9083C216.052 75.2358 216.995 75.3252 217.783 74.9532C218.193 73.8962 218.282 72.7203 217.938 71.64C217.593 70.5599 216.869 69.6051 215.922 68.982C215.299 68.5719 214.558 68.2773 214.14 67.6594C213.829 67.1996 213.746 66.6285 213.585 66.0968C213.058 64.3582 211.414 62.9042 209.651 62.4694Z" fill="#EADFED"/>
<path d="M205.887 72.7024C199.706 78.4098 192.237 82.7481 184.268 85.4473C182.972 85.8863 181.633 86.2831 180.261 86.2505C178.893 86.218 177.473 85.6879 176.663 84.5822C175.776 83.3692 175.776 81.7399 175.841 80.2374C176.293 69.6812 178.064 59.1802 181.103 49.0598C185.078 47.6907 189.845 47.4468 194.038 47.7524C195.754 50.3574 196.505 53.5834 196.111 56.6761C195.721 59.7689 194.191 62.7055 191.88 64.7998C189.969 66.5332 189.787 69.6162 188.731 71.9707C189.345 71.7723 189.959 71.5739 190.577 71.3788C194.672 70.0715 198.793 68.8097 202.878 67.4861L205.887 72.7024Z" fill="#5B4D7D"/>
<path d="M184.263 53.268C182.667 58.6144 180.106 63.4567 178.055 68.647C177.591 69.8243 177.054 70.9658 176.453 72.0682V72.0715C175.985 72.9333 175.475 73.7723 174.929 74.5853V74.5886C173.06 77.3691 170.753 79.8537 168.104 81.9578C169.404 83.6131 169.878 85.7952 169.83 87.8993C169.781 90.0034 169.254 92.062 168.731 94.0978C167.23 99.932 165.696 105.848 164.194 111.682H157.486C156.995 100.495 156.04 88.6961 160.08 78.2504C164.24 67.486 169.417 57.1152 175.517 47.3167C176.989 46.8841 179.264 46.6858 180.792 46.8028C182.319 46.9199 183.892 47.7199 184.49 49.1346C185.036 50.4322 184.666 51.9151 184.263 53.268Z" fill="#5B4D7D"/>
<path d="M175.408 37.271C174.072 38.3474 172.184 39.4889 170.533 40.5979C170.042 40.9296 169.571 41.258 169.145 41.58C168.989 41.6971 168.839 41.8142 168.696 41.928C168.183 42.3442 167.647 42.7703 167.006 42.9394C166.051 43.193 165.05 42.8321 164.133 42.4613C159.099 40.4255 154.351 37.8629 149.759 34.9685C148.81 35.2872 147.685 35.0011 147.003 34.2661C146.317 33.5344 146.08 32.3506 146.463 31.4238C145.332 30.9425 144.357 30.1067 143.707 29.066C146.245 29.4498 148.715 30.266 150.981 31.4693C153.694 32.9132 156.951 33.0986 159.938 33.8336C161.062 34.11 162.19 34.3864 163.249 34.8417C164.312 35.3002 165.313 35.9474 166.028 36.8547C167.218 35.3425 170.682 31.8953 172.229 30.7506C174.195 31.9018 174.491 35.1832 175.408 37.271Z" fill="#BD6F57"/>
<path d="M180.653 25.9678C179.392 26.213 178.48 26.2318 177.219 26.4767C175.986 28.3424 175.297 29.3795 174.374 31.4176C173.609 33.1084 172.95 35.0381 173.58 36.7842C173.994 37.9338 174.917 38.8333 175.406 39.9527C175.94 41.1732 175.92 42.5628 175.76 43.8854C175.601 45.208 175.207 46.4448 175.232 47.7769C178.412 50.2582 190.053 51.2283 194.154 47.7921C194.154 47.7921 193.264 45.5014 193.105 40.5387C192.946 35.5757 195.746 30.6322 194.919 28.1633C194.092 25.694 190.307 26.1271 187.689 25.8666L180.653 25.9678Z" fill="#EADFED"/>
<path d="M179.893 11.4498C178.727 13.6066 177.805 15.8951 177.148 18.2574C177.03 18.6808 176.682 20.5508 176.7 20.9898C176.718 21.4288 176.881 21.8809 177.224 22.1554C177.567 22.4298 178.107 22.4728 178.436 22.1817C178.451 22.7232 178.732 23.251 179.172 23.5658C179.613 23.8806 180.202 23.9752 180.719 23.8142C181.049 24.4643 181.921 23.946 182.643 24.0403C183.366 24.1346 184.155 23.4016 184.64 22.8578C185.194 23.4607 185.821 24.6038 186.638 24.6523C187.455 24.7008 188.287 24.4204 188.909 23.8874C189.524 24.0653 190.16 24.2156 190.799 24.1716C191.438 24.1277 192.088 23.8637 192.47 23.3489C192.9 22.7677 193.089 21.2194 193.044 20.4971C192.933 18.7098 192.353 15.9166 191.664 14.2635C190.685 13.8538 189.64 14.5836 188.65 14.3218C186.473 13.7455 184.495 12.5832 182.417 11.7136C182.015 11.5451 181.607 11.3751 181.175 11.3087C180.744 11.2424 180.101 11.0655 179.893 11.4498Z" fill="#211F20"/>
<path d="M183.014 29.0273C184.688 29.3301 186.529 27.8055 187.689 25.866C187.138 24.5736 187.243 20.1508 187.706 18.2372L182.494 21.0701C182.487 21.1225 182.48 21.18 182.468 21.2428C182.388 21.701 182.21 22.3326 181.914 23.0526C181.701 23.5599 180.993 25.4019 180.652 25.9674C180.136 27.5961 181.339 28.7245 183.014 29.0273Z" fill="#CB775E"/>
<path d="M181.914 23.0526C183.77 22.5075 185.376 21.1495 186.206 19.4005C185.061 20.1667 183.772 20.7524 182.469 21.2425C182.389 21.701 182.21 22.3326 181.914 23.0526Z" fill="#211F20"/>
<path d="M187.893 12.2395C186.716 11.4768 185.332 11.0381 183.931 10.9838C182.531 10.9295 181.106 11.3568 179.874 12.0264C179.166 14.2346 178.709 16.5231 178.513 18.8337C178.45 19.5833 178.426 20.3879 178.816 21.0305C179.085 21.4724 179.53 21.7902 180.014 21.9713C180.499 22.1524 181.023 22.2058 181.54 22.2025C183.689 22.1889 186.185 20.7885 187.54 19.1186L187.803 17.1924C187.828 16.739 187.853 16.286 187.878 15.8327L187.893 12.2395Z" fill="#CB775E"/>
<path d="M186.174 17.4756C185.995 18.4678 186.653 19.4178 187.645 19.597C188.637 19.7762 189.586 19.1173 189.765 18.1251C189.944 17.1329 189.286 16.1829 188.294 16.0037C187.302 15.8242 186.353 16.4834 186.174 17.4756Z" fill="#CB775E"/>
<path d="M181.599 15.2694C181.491 15.7484 181.274 16.2031 180.971 16.5894C180.87 16.498 180.687 16.4802 180.574 16.5572C180.462 16.6343 180.403 16.7754 180.406 16.9117C180.41 17.048 180.472 17.1784 180.559 17.2834C180.647 17.3881 180.759 17.4694 180.875 17.54" stroke="#231F20" stroke-width="0.4256" stroke-miterlimit="10" stroke-linecap="round" stroke-linejoin="round"/>
<path d="M182.892 15.9481C182.852 16.167 182.95 16.3676 183.112 16.3969C183.272 16.4262 183.435 16.2724 183.475 16.0535C183.514 15.8346 183.416 15.634 183.255 15.6047C183.094 15.5758 182.931 15.7293 182.892 15.9481Z" fill="#231F20"/>
<path d="M180.091 15.4522C180.051 15.671 180.15 15.8717 180.311 15.901C180.472 15.9302 180.634 15.7764 180.674 15.5575C180.714 15.3387 180.615 15.138 180.454 15.1088C180.293 15.0798 180.13 15.2333 180.091 15.4522Z" fill="#231F20"/>
<path d="M183.583 14.9543C183.314 14.8479 183.026 14.7959 182.746 14.7221C182.655 14.6983 182.556 14.6652 182.511 14.5832C182.477 14.5208 182.482 14.4444 182.491 14.3735C182.502 14.2795 182.517 14.1816 182.574 14.1055C182.648 14.0066 182.78 13.965 182.902 13.9731C183.025 13.9813 183.141 14.033 183.249 14.0912C183.589 14.273 183.888 14.5289 184.12 14.8362C184.213 14.9592 184.297 15.0928 184.335 15.2421C184.348 15.2896 184.355 15.3397 184.345 15.3878C184.339 15.4151 184.314 15.4801 184.279 15.4818C184.244 15.4834 184.219 15.4236 184.202 15.3995C184.152 15.3305 184.093 15.2681 184.028 15.2128C183.897 15.1013 183.743 15.0174 183.583 14.9543Z" fill="#231F20"/>
<path d="M180.313 14.3308C180.603 14.3256 180.89 14.3777 181.179 14.4066C181.272 14.4161 181.376 14.4196 181.447 14.3585C181.501 14.312 181.523 14.2385 181.539 14.1692C181.562 14.0772 181.582 13.9799 181.555 13.8892C181.521 13.7708 181.411 13.6853 181.293 13.6502C181.175 13.6151 181.049 13.6225 180.927 13.6391C180.546 13.6908 180.175 13.8258 179.85 14.032C179.72 14.1146 179.595 14.2105 179.507 14.337C179.479 14.3774 179.454 14.4216 179.447 14.4704C179.443 14.4983 179.443 14.5676 179.476 14.5816C179.508 14.5956 179.552 14.5481 179.577 14.5318C179.648 14.4847 179.725 14.4469 179.805 14.418C179.967 14.3585 180.141 14.3338 180.313 14.3308Z" fill="#231F20"/>
<path d="M187.328 22.1401C187.324 22.1336 187.324 22.1271 187.321 22.1206C187.334 21.2392 187.393 20.3384 187.484 19.5612C187.536 19.5742 187.591 19.5872 187.646 19.5969C188.637 19.7758 189.586 19.1156 189.765 18.1238C189.944 17.1319 189.287 16.1823 188.293 16.0034C187.688 15.8928 187.1 16.0977 186.694 16.4977C186.73 15.6262 186.824 14.7611 186.983 13.9058C186.671 14.0326 186.317 13.9806 186.028 13.8082C185.735 13.6359 185.498 13.3172 185.456 12.979C184.997 13.1448 184.533 13.3139 184.045 13.3465C183.558 13.379 183.174 13.2066 182.82 12.8684C182.479 13.0798 182.056 13.1546 181.666 13.0733C181.273 12.992 180.935 12.6863 180.704 12.3578C180.493 12.6277 180.077 12.683 179.771 12.5269C179.466 12.3708 179.271 12.0424 179.222 11.7009C179.173 11.3627 179.248 11.0147 179.375 10.696C179.843 9.52526 180.964 8.70248 182.176 8.36752C183.389 8.0293 184.682 8.13012 185.914 8.39679C186.541 8.53338 187.155 8.70899 187.773 8.88785C188.101 8.98216 188.439 9.07973 188.712 9.28461C188.985 9.48624 189.219 9.77242 189.17 10.1106C189.703 10.1301 190.184 10.4749 190.49 10.9139C190.799 11.3497 191.907 14.4616 192.093 15.4821C192.625 18.3969 187.848 22.1856 187.328 22.1401Z" fill="#211F20"/>
<path d="M182.574 19.3433C182.941 19.2997 183.289 19.1121 183.527 18.8291C183.615 18.7254 183.691 18.5882 183.648 18.4594C183.592 18.2955 183.365 18.2493 183.21 18.3247C183.054 18.4002 182.955 18.5547 182.864 18.7017C182.87 18.6922 182.211 18.6304 182.143 18.6366C181.968 18.6529 181.71 18.6786 181.644 18.8756C181.491 19.3274 182.319 19.3735 182.574 19.3433Z" fill="white"/>
<path d="M170.531 40.5979C170.041 40.9296 169.569 41.2581 169.144 41.58L165.715 38.9068L170.531 40.5979Z" fill="#211F20"/>
<path d="M177.262 26.5148C174.754 27.3132 172.518 28.9415 170.987 31.0833C170.673 30.9395 170.249 31.0443 170.012 31.2953C169.775 31.5464 169.72 31.9519 169.881 32.2573C169.557 32.1848 169.061 32.3363 168.895 32.6235C168.728 32.9106 168.77 33.3041 168.994 33.5493C170.488 35.189 172.205 36.7526 174.37 37.2339C176.349 34.0066 177.294 30.3015 177.262 26.5148Z" fill="#EADFED"/>
<path d="M187.724 39.5517C187.041 37.4573 186.096 35.4131 184.979 33.5149C182.665 34.4937 180.715 36.3198 179.435 38.4834C179 37.6873 178.227 37.1188 177.393 36.7614C176.56 36.404 175.66 36.2359 174.768 36.0707C171.131 35.3962 167.471 34.6914 163.833 34.017C163.255 33.1561 162.242 32.4836 161.345 31.9646C160.09 31.239 158.92 30.6384 157.666 29.9128C157.534 29.8364 157.367 29.76 157.239 29.842C157.073 29.9473 157.131 30.1997 157.215 30.3769C157.713 31.4303 158.478 32.3561 159.418 33.0439C158.817 34.1327 159.05 35.6303 159.901 36.5373C160.572 37.2534 161.545 37.5881 162.476 37.8973C167.136 39.444 171.565 41.6558 176.143 43.4314C177.47 43.9462 178.84 44.4688 180.263 44.435C181.731 44.3999 183.135 43.7651 184.319 42.8955C185.503 42.0259 186.74 40.6424 187.724 39.5517Z" fill="#CB775E"/>
<path d="M185.88 32.0579C185.557 32.0153 185.218 32.1103 184.964 32.3142C184.71 32.5181 184.539 32.8186 184.51 33.1435C184.136 33.0186 183.703 33.0865 183.385 33.32C183.067 33.5535 182.872 33.9464 182.879 34.3409C184.941 36.0391 186.339 38.552 186.693 41.2002C187.074 41.3325 187.554 41.3111 187.93 41.166C188.306 41.021 188.628 40.739 188.822 40.3852C189.377 40.259 189.908 39.7348 190.046 39.1826C190.413 37.7204 190.071 36.1682 189.324 34.8586C188.579 33.549 187.374 32.2547 185.88 32.0579Z" fill="#DCC7E0"/>
<path d="M190.575 71.3788C190.094 73.0699 189.096 74.5496 187.734 75.6781C188.228 74.5073 188.573 73.2357 188.729 71.9707C189.343 71.7723 189.957 71.5739 190.575 71.3788Z" fill="#211F20"/>
<path d="M180.822 49.6712C178.356 57.0085 177.267 64.071 176.457 72.0715" stroke="#211F20" stroke-width="0.5" stroke-miterlimit="10" stroke-linecap="round" stroke-linejoin="round"/>
<path d="M189.095 50.1069C189.823 50.7401 189.969 51.8455 189.736 52.7821C189.502 53.7187 188.96 54.5418 188.483 55.3815C188.007 56.2212 187.581 57.1402 187.619 58.1048C187.652 58.9471 188.04 59.7513 188.03 60.5939C188.003 62.9874 184.945 64.4509 184.777 66.8385C184.656 68.5462 186.091 70.1072 185.865 71.8041C185.711 72.958 184.831 73.8569 184.255 74.8686C183.243 76.6497 183.2 78.9464 184.146 80.7639C184.035 80.0612 184.811 79.4049 185.453 79.0986C186.095 78.7925 186.829 78.7678 187.539 78.7288C188.249 78.6898 188.989 78.6211 189.592 78.2449C190.586 77.6257 191.029 76.2858 192.116 75.8507C193.381 75.3437 194.984 76.2943 196.117 75.5372C196.667 75.1694 196.956 74.4692 197.553 74.184C198.117 73.9151 198.781 74.093 199.404 74.0471C200.157 73.9918 200.841 73.6074 201.497 73.2321C202.515 72.6487 203.535 72.0653 204.554 71.4815" stroke="#211F20" stroke-width="0.5" stroke-miterlimit="10" stroke-linecap="round" stroke-linejoin="round"/>
<path d="M201.219 68.5511C202.612 69.9284 203.689 71.624 204.343 73.4712" stroke="#211F20" stroke-width="0.5" stroke-miterlimit="10" stroke-linecap="round" stroke-linejoin="round"/>
<path d="M157.754 110.012C159.779 110.446 161.851 110.657 163.922 110.639" stroke="#211F20" stroke-width="0.5" stroke-miterlimit="10" stroke-linecap="round" stroke-linejoin="round"/>
<path d="M162.909 111.527C162.855 110.432 162.801 109.337 162.747 108.242C162.692 107.128 162.64 105.984 162.985 104.922C163.583 103.077 165.341 101.549 165.164 99.6175C165.069 98.585 164.408 97.6266 164.515 96.5954C164.687 94.9336 166.732 93.9485 166.915 92.2877C167.036 91.1882 166.288 90.1654 166.247 89.06C166.211 88.0915 166.717 87.194 166.922 86.2466C167.256 84.6996 166.715 82.9939 165.552 81.922C166.305 82.1506 167.171 81.4114 167.534 80.7126C167.896 80.0134 167.951 79.2026 168.107 78.4306C168.263 77.6585 168.573 76.8471 169.247 76.4397C170.048 75.9551 171.221 76.1323 171.813 75.4061C172.367 74.7261 172.044 73.7242 172.105 72.8484C172.214 71.2906 173.863 70.0292 175.394 70.3329" stroke="#211F20" stroke-width="0.5" stroke-miterlimit="10" stroke-linecap="round" stroke-linejoin="round"/>
<path d="M174.242 49.6617C177.373 51.1001 180.832 51.7649 184.276 51.7961C187.721 51.8273 191.155 51.2358 194.456 50.2517" stroke="#211F20" stroke-width="0.5" stroke-miterlimit="10" stroke-linecap="round" stroke-linejoin="round"/>
<path d="M179.107 49.8396C178.69 51.5197 178.273 53.1997 177.856 54.8797C177.72 55.4264 177.584 55.9961 177.7 56.547C177.817 57.0983 178.268 57.6222 178.83 57.6254" stroke="#211F20" stroke-width="0.5" stroke-miterlimit="10" stroke-linecap="round" stroke-linejoin="round"/>
<path d="M184.57 33.1981C186.009 34.1802 187.181 35.5497 187.929 37.1233" stroke="#211F20" stroke-width="0.5" stroke-miterlimit="10" stroke-linecap="round" stroke-linejoin="round"/>
<path d="M185.613 32.029C186.461 31.013 187.312 29.9955 188.269 29.0816C189.225 28.1678 190.295 27.3564 191.5 26.8104" stroke="#211F20" stroke-width="0.5" stroke-miterlimit="10" stroke-linecap="round" stroke-linejoin="round"/>
<path d="M193.083 35.818C192.292 37.1981 191.247 38.432 190.016 39.4382" stroke="#211F20" stroke-width="0.5" stroke-miterlimit="10" stroke-linecap="round" stroke-linejoin="round"/>
<path d="M169.969 32.2875C171.099 33.2065 172.036 34.3623 172.702 35.6586" stroke="#211F20" stroke-width="0.5" stroke-miterlimit="10" stroke-linecap="round" stroke-linejoin="round"/>
<path d="M176.989 26.8478C176.329 28.0071 175.669 29.1662 175.008 30.3255C174.528 31.1678 174.046 32.0147 173.705 32.922C173.364 33.8293 173.166 34.8082 173.277 35.7715" stroke="#211F20" stroke-width="0.5" stroke-miterlimit="10" stroke-linecap="round" stroke-linejoin="round"/>
<path d="M171.055 31.1242C171.725 31.6303 172.319 32.2387 172.807 32.9226" stroke="#211F20" stroke-width="0.5" stroke-miterlimit="10" stroke-linecap="round" stroke-linejoin="round"/>
<path d="M178.074 45.6666C181.196 46.6373 184.672 46.4201 187.649 45.0682" stroke="#211F20" stroke-width="0.5" stroke-miterlimit="10" stroke-linecap="round" stroke-linejoin="round"/>
<path d="M207.039 73.3453C206.706 73.717 206.4 74.1193 206.195 74.5746C205.991 75.0299 205.894 75.544 205.991 76.0335C206.047 76.3193 206.207 76.626 206.492 76.6881C206.666 76.7265 206.85 76.6601 206.992 76.5515C207.134 76.4426 207.24 76.2949 207.341 76.1476C208.183 74.9203 208.836 73.5635 209.27 72.1391C209.325 71.9583 209.362 71.7271 209.214 71.6103C208.745 73.2403 208.885 75.0383 209.601 76.5759C209.67 76.7258 209.767 76.8901 209.929 76.9226C210.061 76.9489 210.196 76.8732 210.278 76.7662C210.359 76.6592 210.396 76.5258 210.426 76.3951C210.669 75.3629 210.611 74.2663 210.285 73.2588C210.122 72.7567 209.894 72.2692 209.599 71.8318C209.475 71.648 209.362 71.4864 209.127 71.5872C208.882 71.6923 208.646 71.9033 208.434 72.0627C207.929 72.4432 207.46 72.8734 207.039 73.3453Z" stroke="#211F20" stroke-width="0.5" stroke-miterlimit="10" stroke-linecap="round" stroke-linejoin="round"/>
<path d="M155.275 109.917C155.144 109.707 155.002 109.495 154.797 109.356C154.591 109.218 154.307 109.168 154.096 109.297C153.892 109.422 153.805 109.684 153.821 109.922C153.838 110.161 153.94 110.385 154.04 110.602C154.62 111.86 155.201 113.119 155.781 114.377C156.069 115.001 156.44 115.696 157.108 115.86C156.487 114.05 155.276 112.448 153.705 111.358C153.504 111.218 153.248 111.082 153.028 111.187C152.871 111.262 152.786 111.444 152.782 111.617C152.776 111.791 152.837 111.96 152.903 112.12C153.459 113.469 154.503 114.602 155.783 115.297C156.067 115.452 156.478 115.714 156.808 115.729C157.255 115.749 157.158 115.418 157.113 115.072C157.002 114.218 156.806 113.376 156.528 112.561C156.212 111.636 155.792 110.746 155.275 109.917Z" stroke="#211F20" stroke-width="0.5" stroke-miterlimit="10" stroke-linecap="round" stroke-linejoin="round"/>
</svg>
